<?xml version="1.0" standalone="no"?>
<!DOCTYPE svg PUBLIC "-//W3C//DTD SVG 20010904//EN"
 "http://www.w3.org/TR/2001/REC-SVG-20010904/DTD/svg10.dtd">
<svg version="1.0" xmlns="http://www.w3.org/2000/svg"
 width="512.000000pt" height="512.000000pt" viewBox="0 0 512.000000 512.000000"
 preserveAspectRatio="xMidYMid meet">
<metadata>
Created by potrace 1.14, written by Peter Selinger 2001-2017
</metadata>
<g transform="translate(0.000000,512.000000) scale(0.100000,-0.100000)"
fill="#000000" stroke="none">
<path d="M2353 4920 c-2 -3 -21 -6 -41 -6 -44 -2 -113 -13 -192 -30 -14 -3
-38 -7 -55 -10 -16 -3 -44 -10 -62 -15 -17 -6 -44 -12 -59 -15 -15 -3 -66 -19
-113 -35 -47 -17 -90 -31 -96 -33 -53 -15 -282 -123 -291 -137 -3 -5 -10 -7
-15 -4 -5 4 -9 1 -9 -4 0 -6 -5 -11 -10 -11 -10 0 -139 -77 -150 -90 -3 -3
-35 -25 -72 -50 -38 -25 -68 -48 -68 -52 0 -5 -7 -8 -15 -8 -8 0 -15 -4 -15
-8 0 -4 -22 -25 -49 -45 -120 -92 -323 -317 -431 -477 -24 -36 -53 -78 -64
-94 -29 -44 -138 -262 -168 -336 -44 -111 -60 -154 -64 -179 -3 -13 -9 -31
-13 -40 -9 -17 -52 -182 -56 -216 -2 -11 -10 -58 -19 -105 -9 -47 -16 -94 -16
-105 1 -11 -2 -45 -4 -75 -16 -167 -1 -454 31 -605 2 -11 6 -31 9 -45 3 -14 9
-41 14 -60 5 -19 11 -47 14 -61 6 -38 74 -237 96 -286 11 -24 20 -45 20 -48 0
-9 92 -200 99 -205 3 -3 12 -16 19 -30 28 -58 140 -229 184 -282 13 -15 34
-42 48 -60 32 -43 305 -318 316 -318 5 0 27 -16 49 -35 73 -64 248 -177 382
-247 73 -38 135 -69 138 -69 2 0 25 -8 51 -19 25 -11 50 -20 55 -20 5 0 28 -9
49 -20 22 -11 40 -18 40 -16 0 2 24 -4 53 -14 30 -11 66 -21 81 -24 15 -3 42
-9 59 -15 18 -5 48 -12 67 -15 36 -6 64 -11 114 -22 29 -6 51 -9 171 -19 67
-6 336 -7 405 -1 64 5 164 18 170 21 3 2 26 6 50 10 25 3 72 13 105 22 33 8
67 17 75 18 8 2 15 4 15 5 0 1 7 3 15 5 30 6 146 44 185 60 22 10 41 17 42 17
14 -5 343 158 343 170 0 4 5 8 11 8 6 0 46 23 88 51 419 284 735 685 909 1154
32 88 62 178 67 204 2 9 10 43 18 75 9 33 14 63 11 67 -2 4 0 10 6 14 6 4 8
10 6 14 -3 4 -1 25 4 47 9 36 16 85 26 189 8 75 2 485 -7 485 -3 0 -4 15 -3
33 2 33 -3 67 -31 215 -3 15 -10 41 -16 58 -5 17 -11 40 -14 50 -11 56 -68
210 -112 304 -50 107 -130 259 -142 270 -3 3 -15 21 -25 40 -11 19 -22 37 -25
40 -4 3 -19 25 -35 50 -59 91 -189 249 -283 343 -64 64 -143 134 -190 168 -32
24 -60 46 -63 50 -7 7 -145 101 -198 133 -51 32 -192 104 -277 141 -56 25
-280 103 -314 110 -9 2 -34 8 -56 13 -22 6 -51 13 -65 16 -14 2 -45 9 -70 15
-40 9 -73 13 -195 26 -16 1 -32 4 -35 5 -10 5 -402 5 -407 0z m895 -153 c6 0
12 -5 12 -10 0 -6 3 -8 6 -4 6 6 17 2 149 -48 68 -26 255 -114 265 -125 3 -3
25 -16 50 -29 25 -13 52 -30 61 -37 8 -8 19 -14 23 -14 4 0 12 -4 19 -10 43
-35 109 -80 117 -80 6 0 10 -4 10 -8 0 -5 20 -23 44 -40 68 -49 273 -255 348
-351 37 -47 71 -90 76 -96 75 -95 65 -98 -132 -33 -189 61 -177 54 -481 278
-38 28 -126 91 -195 140 -69 49 -147 105 -173 124 -32 23 -85 85 -156 183
-139 192 -131 178 -90 169 19 -5 40 -8 47 -9z m-1320 -22 c-6 -14 -14 -25 -18
-25 -4 0 -25 -25 -45 -55 -21 -30 -42 -55 -47 -55 -4 0 -8 -6 -8 -12 0 -7 -14
-29 -31 -48 -18 -19 -37 -48 -45 -65 -7 -16 -21 -37 -31 -45 -42 -34 -83 -60
-92 -60 -5 0 -11 -4 -13 -8 -4 -11 -128 -104 -128 -97 0 4 -7 -1 -16 -9 -8 -9
-46 -37 -82 -63 -37 -26 -69 -50 -72 -53 -3 -3 -16 -13 -30 -22 -14 -9 -81
-58 -150 -107 -117 -85 -134 -94 -265 -138 -156 -52 -149 -50 -189 -59 l-29
-7 23 42 c13 22 27 41 32 41 4 0 8 6 8 14 0 8 3 16 8 18 4 2 24 25 45 53 53
69 197 232 197 222 0 -3 21 16 48 42 55 54 212 184 212 176 0 -4 6 0 14 7 25
24 52 43 87 62 18 10 44 28 57 39 12 11 22 17 22 13 0 -5 7 -2 16 5 35 29 280
149 337 164 4 2 9 4 12 5 3 1 8 3 13 5 4 1 15 5 24 9 9 4 25 9 35 11 10 2 18
4 18 5 0 1 8 3 18 5 11 2 21 6 25 9 3 3 16 6 28 6 21 0 23 -2 12 -25z m7 -360
c66 -26 125 -48 130 -49 6 -2 24 -9 40 -15 17 -7 64 -26 105 -41 41 -16 91
-35 110 -43 19 -8 40 -16 45 -17 6 -1 26 -9 45 -17 19 -8 42 -16 50 -18 8 -2
33 -12 55 -22 l41 -18 0 -376 0 -375 -124 -90 c-68 -49 -135 -98 -150 -109
-14 -11 -87 -64 -162 -117 -74 -54 -144 -105 -155 -114 -11 -9 -35 -25 -52
-36 -18 -11 -33 -24 -33 -29 0 -5 -5 -9 -11 -9 -6 0 -25 -12 -42 -26 -34 -29
-68 -29 -147 1 -25 9 -52 18 -60 20 -8 2 -55 18 -105 35 -49 17 -97 33 -105
35 -8 2 -90 29 -182 60 l-166 57 -7 101 c-3 56 -8 181 -10 277 -2 96 -4 175
-5 175 -1 0 -3 62 -4 138 -3 131 -2 139 18 154 12 8 95 69 186 135 91 66 192
138 225 161 33 22 66 46 72 53 7 7 28 22 48 34 19 12 35 27 35 32 0 6 3 9 6 6
3 -4 37 18 76 47 44 33 79 52 92 50 12 -2 75 -24 141 -50z m1465 18 c14 -10
30 -21 35 -25 49 -40 277 -198 285 -198 5 0 10 -4 10 -9 0 -4 19 -21 42 -36
23 -15 47 -32 52 -37 15 -12 161 -117 213 -151 23 -16 43 -34 45 -40 2 -7 2
-59 1 -117 -13 -614 -17 -708 -31 -721 -7 -7 -272 -98 -302 -104 -8 -2 -62
-20 -120 -40 -58 -20 -115 -38 -127 -41 -12 -2 -41 -12 -65 -23 -80 -34 -97
-27 -273 101 -88 65 -164 121 -170 125 -5 5 -41 31 -80 58 -38 27 -75 54 -82
60 -6 5 -56 42 -112 80 l-100 70 -1 406 0 405 118 39 c64 21 122 42 127 45 10
7 82 28 100 31 6 0 15 4 20 9 6 4 39 17 75 28 36 12 117 39 180 61 63 23 120
41 125 41 6 0 22 -8 35 -17z m-2302 -1392 c10 -5 30 -12 43 -15 22 -4 379
-122 489 -162 25 -9 50 -17 55 -18 6 -1 27 -8 47 -15 36 -12 37 -14 84 -154
27 -78 49 -147 50 -153 1 -5 27 -85 58 -176 31 -92 59 -176 61 -187 2 -12 18
-60 34 -108 40 -115 42 -133 18 -163 -10 -14 -59 -83 -108 -155 -49 -71 -93
-135 -99 -142 -5 -7 -10 -17 -10 -23 0 -5 -4 -10 -10 -10 -5 0 -10 -6 -10 -13
0 -7 -9 -19 -19 -27 -11 -7 -18 -17 -16 -20 2 -4 -3 -16 -13 -26 -9 -10 -30
-39 -47 -64 -31 -47 -33 -49 -64 -90 -18 -23 -20 -24 -62 -11 -57 17 -145 43
-239 70 -41 12 -122 35 -180 52 -58 17 -112 32 -120 34 -8 3 -59 16 -112 31
l-98 27 -17 56 c-9 31 -17 59 -19 64 -1 4 -2 8 -4 10 -1 1 -3 9 -5 17 -2 8
-18 53 -35 100 -17 47 -33 92 -35 101 -2 8 -10 32 -19 52 -8 21 -15 39 -16 42
-1 5 -2 11 -21 70 -7 22 -14 42 -14 45 -1 3 -4 12 -8 20 -6 17 -31 93 -32 100
0 3 -16 49 -34 102 -35 104 -34 119 2 158 12 14 45 54 72 90 53 69 64 84 80
103 11 12 118 149 168 215 16 20 32 39 38 40 5 2 9 9 9 15 0 7 10 23 23 37 12
14 35 42 50 62 29 37 44 41 85 19z m3008 -17 c13 -14 24 -29 24 -34 0 -4 4
-10 8 -12 5 -1 42 -46 82 -98 40 -52 92 -118 114 -146 23 -28 52 -66 66 -84
14 -18 30 -38 35 -44 6 -6 32 -40 60 -76 27 -36 55 -69 61 -75 27 -24 42 -58
34 -74 -5 -9 -26 -70 -46 -136 -45 -150 -124 -405 -170 -550 -20 -60 -36 -118
-37 -128 -1 -18 -56 -37 -317 -112 -52 -15 -119 -36 -147 -46 -29 -10 -53 -17
-53 -14 0 2 -19 -3 -42 -11 -24 -9 -52 -17 -62 -20 -11 -2 -40 -10 -66 -19
-26 -9 -58 -18 -71 -21 -13 -3 -34 -8 -46 -11 -15 -3 -25 1 -32 16 -10 18 -94
136 -119 166 -4 6 -29 39 -55 75 -25 36 -50 70 -54 75 -5 6 -31 42 -58 80 -27
39 -52 72 -55 75 -3 3 -25 34 -49 69 l-44 64 17 46 c10 25 19 53 21 61 2 8 19
61 38 118 20 56 35 105 35 108 0 2 15 48 33 102 18 53 34 99 34 102 1 3 16 52
35 110 19 58 34 107 35 110 0 3 9 30 20 60 11 30 18 58 17 61 -1 4 11 10 26
15 32 9 32 9 52 17 29 11 210 68 215 68 2 0 25 8 50 19 25 11 48 19 50 19 3 0
55 16 115 36 60 20 112 36 115 36 2 0 19 6 37 14 48 21 68 18 94 -11z m-3810
-356 c9 -18 20 -35 24 -38 4 -3 31 -39 61 -80 29 -41 57 -76 61 -78 5 -2 8 -9
8 -16 0 -7 9 -21 20 -31 11 -10 20 -26 20 -35 0 -9 3 -20 8 -24 4 -4 8 -12 8
-17 1 -5 2 -10 4 -11 1 -2 3 -10 5 -18 2 -8 49 -150 105 -315 56 -165 102
-304 104 -310 1 -5 16 -53 33 -105 30 -91 31 -103 33 -273 0 -97 -3 -177 -7
-177 -4 0 -24 22 -43 48 -19 26 -37 49 -40 52 -3 3 -19 25 -35 50 -16 25 -32
47 -35 50 -3 3 -10 14 -16 25 -6 12 -38 68 -71 125 -33 58 -60 108 -61 112 -1
5 -13 32 -26 62 -13 30 -27 65 -31 78 -4 12 -13 37 -20 53 -31 69 -88 277
-101 365 -3 19 -8 43 -10 53 -3 10 -7 37 -10 60 -2 23 -6 58 -9 77 -4 19 -8
103 -9 185 -4 179 -1 193 30 133z m4568 -40 c3 -18 4 -55 2 -83 -3 -27 -7 -88
-11 -135 -4 -47 -8 -98 -11 -115 -2 -16 -6 -48 -9 -70 -7 -57 -51 -254 -65
-290 -7 -16 -14 -41 -16 -55 -4 -25 -7 -32 -38 -103 -9 -21 -16 -42 -16 -48 0
-5 -25 -63 -56 -127 -31 -64 -57 -119 -57 -122 -1 -3 -5 -9 -9 -15 -5 -5 -40
-59 -78 -120 -38 -60 -82 -126 -99 -145 l-30 -35 -1 30 c-1 17 -2 98 -2 180 1
140 3 157 32 250 17 55 33 107 35 115 2 8 4 16 5 18 2 1 4 7 5 12 1 6 3 12 4
15 0 3 1 7 1 10 1 2 7 20 16 40 8 19 12 35 9 35 -4 0 -3 6 2 13 4 6 8 14 8 17
3 15 39 130 52 161 8 19 16 46 17 60 2 13 9 38 16 54 6 17 13 37 15 45 2 8 13
44 24 79 12 35 21 70 21 77 0 7 9 19 20 27 11 8 17 17 13 20 -3 4 -1 7 5 7 7
0 12 7 12 15 0 8 3 15 8 15 4 0 39 45 77 100 39 54 75 99 81 100 7 0 14 -15
18 -32z m-1816 -746 c8 -12 43 -60 78 -107 35 -47 64 -90 64 -96 0 -5 3 -9 8
-9 4 0 23 -24 42 -53 19 -28 37 -54 40 -57 5 -5 106 -142 168 -229 18 -25 32
-49 32 -54 0 -10 -80 -130 -93 -138 -5 -3 -8 -9 -8 -13 1 -6 -67 -114 -79
-126 -3 -3 -36 -52 -74 -110 -38 -58 -73 -106 -78 -108 -4 -2 -8 -8 -8 -12 0
-12 -62 -104 -72 -108 -5 -2 -6 -8 -2 -13 3 -5 1 -9 -4 -9 -5 0 -17 -15 -27
-34 l-18 -33 -445 1 c-430 1 -445 2 -456 20 -6 11 -15 25 -19 30 -4 6 -35 52
-68 101 -291 430 -359 533 -359 546 0 8 15 35 33 61 17 26 61 89 96 140 35 51
69 96 75 100 6 4 8 8 4 8 -4 0 22 40 57 90 36 49 65 94 65 100 0 5 4 10 9 10
5 0 12 8 15 18 4 10 14 27 24 38 9 10 24 30 33 44 l16 25 468 0 468 -1 15 -22z
m-908 -1357 c0 -13 56 -15 443 -15 302 0 446 3 454 11 12 12 277 -65 302 -87
13 -12 -9 -22 -109 -49 -3 -1 -12 -5 -20 -8 -20 -8 -234 -56 -280 -62 -115
-16 -196 -20 -370 -20 -107 0 -224 3 -260 8 -142 16 -187 25 -312 58 -62 16
-120 31 -128 33 -38 10 -70 26 -70 36 0 5 12 13 28 16 15 4 86 26 157 50 144
47 165 51 165 29z"/>
</g>
</svg>
